<?xml version="1.0" encoding="UTF-8"?>
<svg width="800px" height="800px" viewBox="0 0 800 800" version="1.1" xmlns="http://www.w3.org/2000/svg">
    <g stroke="none" stroke-width="1" fill="none" fill-rule="evenodd">
        <circle fill="#FFFFFF" cx="400" cy="400" r="400"/>
        <path d="M400,200 C311.634524,200 240,271.634524 240,360 C240,448.365476 311.634524,520 400,520 C488.365476,520 560,448.365476 560,360 C560,271.634524 488.365476,200 400,200 Z M400,240 C466.27417,240 520,293.72583 520,360 C520,426.27417 466.27417,480 400,480 C333.72583,480 280,426.27417 280,360 C280,293.72583 333.72583,240 400,240 Z" fill="#4481EB"/>
        <path d="M400,280 C355.817504,280 320,315.817504 320,360 C320,404.182496 355.817504,440 400,440 C444.182496,440 480,404.182496 480,360 C480,315.817504 444.182496,280 400,280 Z" fill="#04BEFE"/>
        <path d="M400,320 C378.90861,320 360,338.90861 360,360 C360,381.09139 378.90861,400 400,400 C421.09139,400 440,381.09139 440,360 C440,338.90861 421.09139,320 400,320 Z" fill="#FFFFFF"/>
    </g>
</svg> 